<?xml version="1.0" encoding="UTF-8" standalone="no"?>
<!-- Generator: Adobe Illustrator 16.0.0, SVG Export Plug-In . SVG Version: 6.00 Build 0)  -->

<svg
   xmlns:dc="http://purl.org/dc/elements/1.1/"
   xmlns:cc="http://creativecommons.org/ns#"
   xmlns:rdf="http://www.w3.org/1999/02/22-rdf-syntax-ns#"
   xmlns:svg="http://www.w3.org/2000/svg"
   xmlns="http://www.w3.org/2000/svg"
   xmlns:sodipodi="http://sodipodi.sourceforge.net/DTD/sodipodi-0.dtd"
   xmlns:inkscape="http://www.inkscape.org/namespaces/inkscape"
   version="1.1"
   id="Layer_1"
   x="0px"
   y="0px"
   width="864px"
   height="864px"
   viewBox="0 0 864 864"
   enable-background="new 0 0 864 864"
   xml:space="preserve"
   sodipodi:docname="spider_white.svg"
   inkscape:version="0.92.2 (5c3e80d, 2017-08-06)"><metadata
     id="metadata3715"><rdf:RDF><cc:Work
         rdf:about=""><dc:format>image/svg+xml</dc:format><dc:type
           rdf:resource="http://purl.org/dc/dcmitype/StillImage" /><dc:title></dc:title></cc:Work></rdf:RDF></metadata><defs
     id="defs3713"><filter
       inkscape:collect="always"
       style="color-interpolation-filters:sRGB"
       id="filter4574"
       x="-0.012070468"
       width="1.0241409"
       y="-0.01193035"
       height="1.0238607"><feGaussianBlur
         inkscape:collect="always"
         stdDeviation="3.4471327"
         id="feGaussianBlur4576" /></filter></defs><sodipodi:namedview
     pagecolor="#ffffff"
     bordercolor="#666666"
     borderopacity="1"
     objecttolerance="10"
     gridtolerance="10"
     guidetolerance="10"
     inkscape:pageopacity="0"
     inkscape:pageshadow="2"
     inkscape:window-width="1920"
     inkscape:window-height="1017"
     id="namedview3711"
     showgrid="false"
     inkscape:zoom="0.98148148"
     inkscape:cx="46.765559"
     inkscape:cy="277.38935"
     inkscape:window-x="-8"
     inkscape:window-y="-8"
     inkscape:window-maximized="1"
     inkscape:current-layer="Layer_1" /><path
     fill="#010101"
     d="M736.691,252.307c-16.375,55.771-46.777,100.369-100.432,126.607c-24.594,12.029-48.73,25.051-73.697,36.236  c-11.746,5.258-24.83,7.908-37.564,10.428c-6.645,1.305-13.863-0.229-21.398-0.502c-0.596,4.727-1.773,9.469,6.166,12.832  c87.086,36.848,174.502,34.496,262.34,3.201c2.506-0.891,5.057-1.689,7.832-1.9c-29.863,24.51-62.934,42.104-101.701,47.4  c-22.307,3.047-44.334,1.252-66.336-3.395c-10.287-2.17-21.012-2.188-31.5-3.457c-28.078-3.402-55.875-7.836-80.543-23.742  c-0.705,1.326-1.23,2.215-1.652,3.162c-0.539,1.213-0.986,2.479-1.73,4.367c24.053,12.744,42.186,32.045,59.104,52.727  c14.553,17.791,30.381,34.639,43.783,53.242c29.406,40.867,35.629,87.406,29.48,136.451c-2.602-9.855-5.07-19.754-7.828-29.568  c-18.549-66.096-51.865-123.23-103.342-169.166c-9.102-8.131-19.393-14.914-28.664-22.871c-6.182-5.291-11.477-6.543-17.146,0.717  c21.111,30.15,23.133,65.438,25.467,100.75c1.102,16.789,4.246,33.469,4.818,50.256c1.594,46.643-15.355,87.014-43.682,123.205  c-1.35,1.707-2.742,3.383-4.09,5.084c-1.305,1.627-2.592,3.273-4.963,4.754c36.611-91.275,42.75-182.887,4.99-276.133  c-3.787,1.199-7.217,2.268-9.824,3.088c6.184,14.592,12.295,28.389,17.898,42.4c9.787,24.5,4.33,44.877-15.143,63.137  c-35.148,32.955-75.943,50.49-124.285,50.266c-21.949-0.1-38.1-10.406-50.838-27.479c-25.375-34.002-31.016-71.674-20.393-112.041  c3.697-14.074,8.342-28.07,14.131-41.418c8.375-19.289,26.293-26.133,45.199-29.344c13.201-2.24,26.842-1.818,40.475-2.596  c-0.559-3.912-1.293-8.965-2.1-14.557c-99.344,1.355-181.068,42.242-250.285,111.652c-0.656-0.666-1.316-1.34-1.977-2.008  c7.957-12.373,15.248-25.242,23.986-37.037c28.723-38.746,67.014-62.268,114.402-72.041c16.65-3.434,32.418-10.994,48.883-15.596  c21.545-6.033,43.465-9.805,65.855-4.373c4.881-7.555,2.832-11.637-4.582-16.18c-76.51-46.922-159.18-59.18-246.766-44.979  c-4.23,0.684-8.562,0.707-12.846,1.037c0.301-0.451,0.604-0.906,0.904-1.355c3.432-1.566,6.902-3.074,10.291-4.719  c38.836-18.92,79.512-28.938,122.428-19.756c25.822,5.525,50.936,14.502,76.164,22.568c13.381,4.279,26.715,9.109,39.336,15.217  c9.617,4.645,18.072,11.688,27.523,17.986c1.912-3.406,3.037-5.396,4.209-7.492c-19.242-13.26-32.203-31.238-43.662-50.363  c-8.215-13.709-14.795-28.467-23.639-41.73c-12.463-18.697-22.842-38.178-28.621-59.926c-10.039-37.799-6.547-75.096,4.561-112.1  c0.881,2.643,1.133,5.291,1.273,7.938c4.789,90.328,34.564,170.137,98.764,235.598c5.633,5.73,10.441,10.141,18.062,3.172  c-10.408-16.615-12.852-35.568-12.232-54.65c0.904-27.615,3.502-55.168,5.146-82.758c3.551-59.602,33.012-104.801,78.137-141.389  c0.455,0.309,0.91,0.607,1.359,0.912c-55.346,84.334-76.482,175.346-54.689,275.41c4.357-0.102,23.602,1.852,24.479,1.893  c0.268-1.783,0.5-3.574,0.824-5.35c1.41-7.645,6.646-11.072,13.799-11.344c7.223-0.268,9.611,5.479,10.826,11.131  c0.697,3.262-0.498,6.908-0.582,10.373c-0.043,1.711-0.141,4.217,0.863,5.02c3.584,2.871,7.375,5.904,11.609,7.316  c1.812,0.609,4.789-3.596,7.447-3.943c5.689-3.412,11.771-4.223,16.871,0.086c2.354,0.764,4.719,7.789,3.787,11.023  c-1.463,5.078-5.719,9.354-9.506,15.049c2.43-1.197,7.271,15.986,8.283,18.941c93.756-13.633,178.127-70.463,235.154-156.307  C735.787,251.711,736.234,252.006,736.691,252.307z"
     id="path3708" /><path
     style="stroke-width:1.01886797"
     d="m 451.7365,765.2717 c 0.29108,-1.12076 3.1068,-9.37359 6.25715,-18.33962 12.68136,-36.09169 20.22856,-73.64977 21.73079,-108.14171 2.05812,-47.25571 -4.26518,-89.43932 -19.90974,-132.82056 -2.52611,-7.00472 -4.71866,-12.87111 -4.87233,-13.03644 -0.50045,-0.53839 -9.7176,2.05667 -10.22587,2.87906 -0.27177,0.43975 3.13137,9.26294 7.56254,19.6071 11.66749,27.2367 13.40868,32.50329 14.06623,42.54639 1.17106,17.88589 -6.30317,32.25671 -25.15315,48.36238 -34.79716,29.73116 -71.38745,44.17683 -113.11665,44.65791 -11.80092,0.13605 -16.00365,-0.20644 -20.88679,-1.7021 -10.1259,-3.10146 -17.86177,-7.8401 -26.04769,-15.95557 -16.09568,-15.95721 -27.93933,-39.2914 -32.11408,-63.27074 -2.40205,-13.79714 -1.50886,-37.26073 1.98328,-52.09961 3.21092,-13.64393 10.59297,-35.87509 15.28428,-46.02881 6.76308,-14.63781 18.24725,-23.44082 36.64625,-28.09062 8.34271,-2.10838 28.27156,-4.09536 41.07516,-4.09536 8.48142,0 8.09418,0.56295 6.83335,-9.93397 l -0.6425,-5.34905 h -9.42938 c -18.17651,0 -46.37051,3.81375 -68.73961,9.2983 -54.465,13.35393 -104.85778,40.55862 -151.81132,81.95577 -5.88397,5.18767 -12.95305,11.74488 -15.70908,14.57156 -5.642724,5.78741 -7.91099,5.94322 -4.522492,0.31067 6.200252,-10.30638 21.908022,-33.72472 26.007142,-38.77341 11.09897,-13.67006 25.32199,-27.10163 38.10496,-35.98457 20.35087,-14.14191 38.03486,-21.8229 67.64983,-29.38349 10.6668,-2.7232 25.1253,-7.06379 32.13001,-9.64576 15.44506,-5.6931 36.07965,-11.14359 48.43417,-12.79354 8.57516,-1.14522 27.8836,-0.77886 35.67447,0.6769 2.64352,0.49396 3.29141,0.17973 4.33019,-2.10014 3.06844,-6.73448 0.84024,-9.91119 -12.46367,-17.76921 -68.16805,-40.26381 -145.71708,-54.64563 -230.72452,-42.78891 -22.167871,3.09194 -23.337515,2.55585 -8.82132,-4.04308 34.13971,-15.51961 58.55291,-21.53109 87.43982,-21.53109 23.773,0 42.46805,4.25848 96.59451,22.00295 42.27557,13.85935 51.17892,17.82365 70.06494,31.19706 4.68034,3.31422 8.6093,5.88162 8.73101,5.70537 0.12172,-0.17627 1.19475,-2.02132 2.38451,-4.10014 l 2.16321,-3.77966 -6.30932,-5.05607 c -16.64277,-13.33691 -29.14111,-30.04296 -47.34952,-63.29027 -5.06385,-9.24622 -12.9594,-22.7717 -17.54568,-30.0566 -20.90296,-33.20256 -29.15649,-58.79785 -30.22628,-93.73585 -0.65679,-21.44981 0.90457,-36.22909 6.02776,-57.0566 l 3.25809,-13.24529 0.73997,7.13208 c 0.40696,3.92264 1.45242,14.33126 2.32323,23.13026 7.9594,80.42541 39.5175,151.48617 91.60166,206.26347 12.24209,12.87511 16.37792,14.75487 22.33656,10.15213 1.71245,-1.32278 1.61038,-1.80893 -1.81138,-8.62701 -6.91261,-13.77384 -8.15213,-21.01152 -8.05149,-47.01319 0.0825,-21.33076 3.14284,-73.18441 5.56213,-94.24528 3.93492,-34.25498 17.49635,-65.86046 40.4874,-94.35762 6.6297,-8.217442 33.2882,-34.529177 34.98423,-34.529177 0.55142,0 0.80432,0.343868 0.56203,0.764151 -0.24229,0.420283 -4.02037,6.724529 -8.39571,14.009434 C 408.50422,166.61768 392.8219,249.19949 408.74536,335.97268 l 2.17837,11.87079 11.30229,0.84437 c 6.21626,0.46441 11.97733,0.85369 12.80238,0.86506 0.97197,0.0134 1.75669,-1.4823 2.22889,-4.24832 1.34234,-7.86314 6.03291,-11.931 13.75744,-11.931 6.99693,0 10.60473,6.80212 9.77305,18.42602 -0.50155,7.00976 -0.49484,7.03184 2.93023,9.63571 1.88812,1.43541 4.89606,3.36336 6.68432,4.28433 3.17917,1.63729 3.36336,1.60488 8.29213,-1.45902 9.32276,-5.79534 18.06514,-4.69175 21.14052,2.66867 2.20181,5.26966 1.83396,6.91407 -3.1873,14.24837 l -4.63534,6.77061 2.00289,4.24662 c 1.10159,2.33564 2.81274,6.88294 3.80254,10.10511 0.98981,3.22217 2.28903,5.85451 2.88716,5.84964 0.59814,-0.005 7.76368,-1.36217 15.92341,-3.01622 15.68718,-3.17994 32.84065,-8.06793 48.84336,-13.91824 13.3103,-4.86603 43.98184,-20.11563 57.7737,-28.72454 39.59665,-24.71634 75.29914,-58.63922 104.30486,-99.10575 9.59653,-13.38832 9.84466,-12.53454 2.24834,7.73586 -6.00546,16.02529 -17.04125,37.34391 -25.55915,49.37449 -13.07043,18.4605 -32.81396,37.00616 -52.1901,49.02361 -11.50258,7.13413 -85.32129,43.73685 -95.9972,47.59985 -4.65135,1.68306 -13.94845,4.30363 -20.66023,5.82348 -10.39608,2.35415 -13.65979,2.67837 -22.03895,2.1894 -9.78677,-0.57113 -9.83881,-0.56159 -10.46065,1.916 -0.34372,1.36949 0.019,4.03111 0.806,5.91471 1.23403,2.95344 2.67357,3.94669 10.46065,7.21752 65.55198,27.53402 140.6621,32.50716 215.18436,14.24765 8.03411,-1.96853 21.71779,-5.88134 30.40816,-8.69513 8.69039,-2.81379 16.00532,-4.91137 16.25542,-4.66128 0.25009,0.2501 -2.65905,2.75115 -6.46478,5.5579 -27.00679,19.91768 -53.95876,32.30072 -82.99449,38.1317 -16.16938,3.24714 -46.64406,3.21115 -64.01934,-0.0756 -6.44434,-1.21903 -20.4283,-3.13466 -31.07547,-4.25696 -42.28673,-4.45741 -65.47708,-10.17945 -84.6026,-20.87505 -3.5966,-2.01134 -6.94858,-3.40399 -7.44888,-3.09479 -0.50028,0.3092 -1.51688,2.02824 -2.25909,3.82011 -1.21233,2.92684 -1.15703,3.36914 0.54422,4.35206 15.21585,8.79108 30.71828,21.81803 45.51796,38.2495 18.42758,20.45939 50.50913,59.51514 57.77536,70.33516 17.13765,25.5194 25.64849,49.95172 28.74818,82.52831 1.25496,13.18919 0.59506,39.98204 -1.08752,44.15471 -0.61273,1.51949 -0.90871,1.69443 -0.95323,0.5634 -0.15127,-3.84223 -11.51321,-42.31369 -16.36631,-55.41623 -6.17259,-16.66494 -20.57864,-46.78906 -28.99114,-60.62264 -17.22172,-28.31952 -40.45016,-56.4753 -62.42878,-75.67149 -14.15374,-12.36192 -34.79728,-28.18345 -37.73514,-28.9208 -2.88941,-0.72519 -9.17897,1.93382 -10.07067,4.25753 -0.32819,0.85528 0.55417,3.29416 1.96081,5.41975 12.81,19.3572 18.97513,43.5319 22.12691,86.76407 0.63323,8.68585 2.03981,23.70003 3.12572,33.36485 2.61056,23.23445 2.5984,45.31087 -0.0334,60.70552 -4.91202,28.73218 -17.60903,56.94912 -37.60324,83.56677 -9.98353,13.29075 -10.62743,14.02718 -9.93545,11.36286 z"
     id="path3717"
     inkscape:connector-curvature="0" /><path
     style="stroke-width:1.01886797;fill:#ffffff;stroke:#ffffff;filter:url(#filter4574)"
     d="m 451.73597,765.2717 c 0.2908,-1.12076 3.29916,-10.06132 6.68524,-19.86793 10.74826,-31.1285 17.76462,-63.22807 20.55116,-94.02085 1.7459,-19.29309 0.64935,-59.66551 -2.10926,-77.65839 -3.8307,-24.98549 -8.98727,-45.40318 -17.11172,-67.75472 -2.5461,-7.00472 -4.73993,-12.87846 -4.87519,-13.05277 -0.13524,-0.17431 -2.47215,0.34087 -5.19313,1.14482 -3.55639,1.05081 -4.86379,1.92443 -4.65043,3.10753 0.16323,0.90517 3.73101,9.77372 7.92839,19.70786 11.2291,26.57648 12.73721,31.20625 13.38424,41.08867 1.21252,18.51904 -6.47065,32.77669 -26.84707,49.82014 -34.49198,28.85012 -70.28052,42.72584 -111.42273,43.20015 -16.38655,0.18892 -22.08716,-0.96813 -32.8177,-6.66095 -19.98714,-10.60369 -39.53406,-40.95239 -45.57544,-70.76078 -2.37434,-11.71506 -2.82358,-31.29303 -0.99716,-43.45611 2.44663,-16.2933 10.779,-43.63846 17.76,-58.28474 7.22645,-15.16125 17.61445,-23.13215 36.41171,-27.93934 8.67408,-2.21831 27.14592,-4.114 40.24689,-4.13038 9.52449,-0.0119 9.01679,0.63993 7.74546,-9.94448 l -0.6425,-5.34905 h -9.05687 c -4.98128,0 -15.74372,0.70221 -23.91653,1.56049 -77.95786,8.18673 -147.97852,42.18476 -210.40118,102.15879 -4.28477,4.1167 -8.043258,7.07592 -8.352195,6.57604 -0.536204,-0.86759 10.035615,-18.35633 18.940605,-31.33306 13.19484,-19.22805 31.38047,-37.42061 49.57007,-49.58892 19.36856,-12.95702 35.19632,-19.6986 64.08641,-27.29662 10.48027,-2.75629 27.07862,-7.7495 36.88522,-11.09603 26.66074,-9.09805 39.00194,-11.64311 57.05661,-11.76652 8.12547,-0.0555 17.32605,0.26542 20.44573,0.71322 5.46394,0.7843 5.71639,0.71708 6.87736,-1.83096 0.66287,-1.45483 1.20521,-3.50538 1.20521,-4.55677 0,-4.93192 -10.29973,-12.28335 -33.47957,-23.89606 -64.27579,-32.20108 -134.10653,-42.81989 -210.93017,-32.07507 -22.477634,3.1438 -23.558733,2.58121 -8.26951,-4.30328 34.25038,-15.42241 58.10457,-21.26977 86.73454,-21.26116 25.45978,0.008 47.28603,5.21097 108.37867,25.83716 29.30182,9.89292 39.25811,14.36333 53.77744,24.14621 6.60211,4.44841 12.45528,8.08801 13.00705,8.08801 0.55176,0 1.79067,-1.65135 2.75314,-3.66967 l 1.74994,-3.66965 -4.05888,-3.20043 c -17.77649,-14.01676 -29.01992,-28.78567 -48.81381,-64.11984 -6.34837,-11.33251 -14.58932,-25.41871 -18.31324,-31.30268 -20.13291,-31.81103 -28.7653,-58.79899 -29.81946,-93.22641 -0.65618,-21.42989 0.9008,-36.19127 6.01814,-57.0566 l 3.24848,-13.24529 0.73914,6.62264 c 0.40653,3.64246 1.48738,14.18774 2.40186,23.43397 7.86076,79.47824 38.25527,148.70801 89.83696,204.6222 13.28284,14.3985 18.25803,16.83376 23.93714,11.71676 1.58766,-1.43052 1.45791,-2.04067 -1.82497,-8.58203 -6.93632,-13.82109 -7.94786,-19.83131 -7.8725,-46.7758 0.0723,-25.85036 4.29051,-90.09315 6.85837,-104.452 6.60661,-36.9425 23.40559,-68.7992 51.49235,-97.647322 11.26992,-11.57542 22.27386,-21.585147 22.96704,-20.891961 0.22356,0.223561 -3.01808,6.104295 -7.20365,13.068299 C 433.57333,124.90749 417.4423,165.229 409.5646,204.38491 c -5.18158,25.75489 -6.43995,38.80258 -6.43628,66.73584 0.003,26.48117 1.03704,38.51958 5.47744,63.79827 l 2.25806,12.85487 12.3511,0.94472 c 7.62726,0.58341 12.60217,0.58157 13.00751,-0.005 0.36103,-0.52224 0.92774,-2.64642 1.2594,-4.72041 0.78067,-4.88208 4.45402,-8.77243 9.58857,-10.15502 9.55601,-2.57316 14.70402,4.17152 13.71667,17.97095 l -0.51629,7.21593 5.46421,3.67983 c 3.00533,2.0239 6.22614,3.67981 7.15739,3.67981 0.93123,0 4.30796,-1.37547 7.50385,-3.0566 6.51608,-3.42767 10.37023,-3.80537 14.90444,-1.46063 3.07898,1.59219 5.98235,6.70426 5.98235,10.53331 0,1.10333 -2.08165,5.04663 -4.6259,8.76287 l -4.62589,6.75681 2.45952,5.27929 c 1.35272,2.90361 3.03127,7.11325 3.7301,9.35476 0.69882,2.24151 1.6086,4.44593 2.02171,4.89873 1.06127,1.1632 28.85365,-4.6098 43.36991,-9.00874 19.74546,-5.98327 30.39896,-10.24446 50.89696,-20.35745 52.66841,-25.98474 97.13687,-64.56955 134.43224,-116.64545 8.15124,-11.38165 8.26557,-10.09031 0.85693,9.67924 -6.00853,16.03346 -17.04525,37.35114 -25.55915,49.36811 -12.25779,17.30128 -30.82424,35.21306 -48.59794,46.88434 -10.18019,6.68491 -87.8797,45.50846 -99.47641,49.70463 -4.71347,1.70554 -14.0614,4.34352 -20.77318,5.86217 -10.29836,2.33018 -13.7539,2.67937 -22.1372,2.23695 -9.62004,-0.50767 -9.93907,-0.45484 -10.09539,1.67204 -0.54555,7.42197 1.78733,9.75141 14.84628,14.82438 31.93432,12.40543 63.47857,19.81507 96.36137,22.63499 17.03201,1.46061 52.95501,0.65228 70.10299,-1.57743 24.84798,-3.23094 50.78985,-9.1353 76.4682,-17.40415 8.03958,-2.58887 14.82128,-4.50318 15.07044,-4.25403 0.24915,0.24917 -2.66075,2.74945 -6.46648,5.5562 -27.02009,19.92749 -54.0171,32.32789 -82.99449,38.12146 -9.64423,1.92821 -14.82249,2.30732 -31.41556,2.30003 -16.97519,-0.007 -22.16729,-0.40904 -35.66038,-2.75813 -8.68585,-1.51218 -22.89906,-3.46131 -31.58491,-4.33143 -37.8786,-3.7945 -62.45495,-9.97543 -81.16554,-20.41302 -3.45332,-1.92642 -6.57153,-3.50258 -6.92935,-3.50258 -0.35783,0 -1.36509,1.71004 -2.23837,3.80007 -1.4765,3.53376 -1.46111,3.87294 0.21944,4.83963 13.80492,7.94088 29.02786,20.44234 42.82823,35.17162 5.89861,6.29565 30.96906,35.77988 47.21574,55.52831 21.80413,26.50371 34.38144,52.89257 39.9763,83.87555 1.70529,9.44347 2.16982,16.31206 2.25174,33.29426 0.0567,11.76792 -0.2871,23.23019 -0.76415,25.4717 -0.8414,3.95351 -0.98692,3.63339 -4.86262,-10.69812 C 609.90195,633.65043 590.83303,593.0654 562.46097,555.46262 549.754,538.62149 532.9377,520.1442 520.32121,509.1606 c -13.79657,-12.01096 -35.3985,-28.5718 -38.24948,-29.32347 -2.72451,-0.71833 -9.08498,1.9274 -9.93047,4.13071 -0.30287,0.78925 0.57706,3.22144 1.95539,5.40486 12.5384,19.8621 18.31875,41.52864 21.55261,80.78579 0.90015,10.92736 2.58085,28.57925 3.73489,39.22642 2.67554,24.68453 2.24753,51.66868 -1.06109,66.89696 -5.88187,27.07197 -18.07525,52.89753 -36.65111,77.62697 -9.98407,13.29147 -10.62723,14.02699 -9.93598,11.36286 z"
     id="path3719"
     inkscape:connector-curvature="0" /></svg>